<svg width="123" height="5" viewBox="0 0 123 5" fill="none" xmlns="http://www.w3.org/2000/svg">
<path d="M2 3.4L8.09191 1.38461C8.83711 1.13808 9.64925 1.19342 10.3541 1.53877L14.3024 3.47323C14.9927 3.81144 15.7864 3.87177 16.5199 3.64178L22.1337 1.88146C22.7181 1.69822 23.3446 1.69822 23.9289 1.88146L29.7875 3.71854C30.3719 3.90178 30.9984 3.90178 31.5827 3.71854L37.4413 1.88146C38.0257 1.69822 38.6522 1.69822 39.2365 1.88146L44.9843 3.68378C45.6369 3.88843 46.3399 3.86392 46.9767 3.61432L52.6018 1.4095C53.2755 1.14543 54.0219 1.13377 54.7036 1.37665L61.1009 3.65621C61.7264 3.87909 62.4081 3.88815 63.0393 3.68198L70.2266 1.33436C70.8884 1.11821 71.6047 1.13893 72.2529 1.39299L77.9374 3.62109C78.5636 3.86655 79.2542 3.89444 79.8982 3.70027L87.7997 1.31788C88.4804 1.11266 89.2118 1.15582 89.8636 1.43969L94.697 3.5447C95.3705 3.838 96.1281 3.87403 96.8264 3.64596L103.996 1.30425C104.601 1.10656 105.253 1.10656 105.858 1.30425L113.149 3.68564C113.773 3.88956 114.447 3.88298 115.068 3.66689L121 1.6" stroke="#ADEC97" stroke-width="2" stroke-linecap="square"/>
</svg>
