<svg width="226" height="5" viewBox="0 0 226 5" fill="none" xmlns="http://www.w3.org/2000/svg">
<path d="M2 3.4L8.09464 1.38437C8.83964 1.13799 9.65152 1.1933 10.3562 1.53845L14.3071 3.47354C14.9972 3.81156 15.7907 3.87186 16.524 3.642L22.1409 1.88129C22.7251 1.69816 23.3514 1.69816 23.9356 1.88129L29.7972 3.71871C30.3814 3.90184 31.0077 3.90184 31.5919 3.71871L37.4535 1.88129C38.0377 1.69816 38.664 1.69816 39.2482 1.88129L44.9991 3.68398C45.6515 3.88851 46.3543 3.86401 46.9909 3.61456L52.6191 1.40925C53.2926 1.14534 54.0388 1.13368 54.7202 1.37641L61.1209 3.65642C61.7462 3.87916 62.4278 3.88822 63.0588 3.68218L70.2497 1.33415C70.9113 1.11813 71.6274 1.13884 72.2754 1.39274L77.9629 3.62132C78.589 3.86664 79.2794 3.89451 79.9232 3.70046L87.8286 1.31768C88.5091 1.11258 89.2403 1.15572 89.8919 1.43942L94.7281 3.54498C95.4014 3.8381 96.1588 3.87411 96.8569 3.64618L104.03 1.30406C104.635 1.10649 105.287 1.10649 105.892 1.30406L113.065 3.64618C113.763 3.87411 114.52 3.8381 115.194 3.54498L119.556 1.6458C120.482 1.24271 121.548 1.33245 122.394 1.8846L124.387 3.18656C125.172 3.69907 126.151 3.81532 127.034 3.50079L132.998 1.37641C133.68 1.13368 134.426 1.14534 135.099 1.40925L140.709 3.60726C141.357 3.86116 142.073 3.88187 142.735 3.66585L149.741 1.37792C150.484 1.13557 151.291 1.19212 151.992 1.53554L155.778 3.38996C156.569 3.77697 157.489 3.7976 158.295 3.44638L162.717 1.52137C163.481 1.18886 164.348 1.18886 165.112 1.52137L169.718 3.52667C170.417 3.83078 171.205 3.85775 171.922 3.60211L178.11 1.39789C178.828 1.14225 179.616 1.16922 180.314 1.47333L185.031 3.52667C185.729 3.83078 186.517 3.85775 187.235 3.60211L193.483 1.37641C194.165 1.13368 194.911 1.14534 195.584 1.40925L200.967 3.51851C201.75 3.82531 202.626 3.78938 203.381 3.41947L207.076 1.61005C207.866 1.22303 208.786 1.2024 209.593 1.55362L214.243 3.57826C214.87 3.8512 215.571 3.9018 216.231 3.72166L224 1.6" stroke="#FBC9DD" stroke-width="2" stroke-linecap="square"/>
</svg>
