<svg width="136" height="5" viewBox="0 0 136 5" fill="none" xmlns="http://www.w3.org/2000/svg">
<path d="M2 3.4L8.09119 1.38468C8.83644 1.1381 9.64865 1.19345 10.3536 1.53886L14.3011 3.47315C14.9915 3.81141 15.7853 3.87175 16.5189 3.64172L22.1318 1.88151C22.7162 1.69824 23.3428 1.69824 23.9272 1.88151L29.7849 3.71849C30.3694 3.90176 30.9959 3.90176 31.5803 3.71849L37.4381 1.88151C38.0225 1.69824 38.649 1.69824 39.2335 1.88151L44.9804 3.68373C45.6331 3.88841 46.3361 3.8639 46.9729 3.61426L52.5972 1.40956C53.271 1.14546 54.0175 1.13379 54.6992 1.37671L61.0956 3.65615C61.7211 3.87906 62.403 3.88813 63.0342 3.68193L70.2205 1.33442C70.8823 1.11823 71.5987 1.13895 72.247 1.39305L77.9306 3.62103C78.5569 3.86653 79.2475 3.89442 79.8916 3.70022L87.7921 1.31793C88.4728 1.11267 89.2043 1.15585 89.8561 1.43976L94.6888 3.54463C95.3623 3.83797 96.12 3.874 96.8183 3.6459L103.987 1.3043C104.592 1.10658 105.244 1.10658 105.85 1.3043L113.018 3.6459C113.716 3.874 114.474 3.83797 115.147 3.54463L119.656 1.58106C120.498 1.21413 121.462 1.25352 122.272 1.68795L125.455 3.39588C126.175 3.78185 127.02 3.85798 127.797 3.6067L134 1.6" stroke="#9EDDF8" stroke-width="2" stroke-linecap="square"/>
</svg>
