<svg width="68" height="6" viewBox="0 0 68 6" fill="none" xmlns="http://www.w3.org/2000/svg">
<path d="M2.01064 3.39963L7.50203 1.54188C8.30095 1.27161 9.17675 1.35011 9.91487 1.75817L13.2288 3.59023C13.9517 3.98988 14.8074 4.07377 15.5942 3.82213L20.5065 2.25094C21.1353 2.04985 21.8128 2.06173 22.4341 2.28476L27.5483 4.12066C28.1696 4.34368 28.8471 4.35557 29.4759 4.15447L34.6514 2.4991C35.2801 2.298 35.9576 2.30989 36.5789 2.53291L41.5751 4.32643C42.2682 4.57523 43.0286 4.56042 43.7115 4.28484L48.6504 2.29164C49.3725 2.0002 50.1797 2.00099 50.9013 2.29384L56.4765 4.55652C57.1392 4.82548 57.8762 4.84883 58.5546 4.62237L66.0429 2.12264" stroke="#E0CCFF" stroke-width="2" stroke-linecap="square"/>
</svg>
