<svg width="395" height="5" viewBox="0 0 395 5" fill="none" xmlns="http://www.w3.org/2000/svg">
<path d="M2 3.4L8.09464 1.38437C8.83963 1.13799 9.65152 1.1933 10.3562 1.53845L14.3071 3.47354C14.9972 3.81156 15.7907 3.87186 16.524 3.642L22.1409 1.88129C22.7251 1.69816 23.3514 1.69816 23.9356 1.88129L29.7972 3.71871C30.3814 3.90184 31.0077 3.90184 31.5919 3.71871L37.4535 1.88129C38.0377 1.69816 38.664 1.69816 39.2482 1.88129L44.9991 3.68398C45.6515 3.8885 46.3543 3.86401 46.9909 3.61456L52.6191 1.40925C53.2926 1.14534 54.0388 1.13368 54.7202 1.37641L61.1209 3.65642C61.7462 3.87916 62.4278 3.88822 63.0588 3.68218L70.2497 1.33415C70.9113 1.11813 71.6274 1.13884 72.2754 1.39274L77.9629 3.62132C78.589 3.86664 79.2794 3.89451 79.9232 3.70046L87.8286 1.31768C88.5091 1.11258 89.2403 1.15572 89.8919 1.43942L94.7281 3.54498C95.4014 3.8381 96.1588 3.87411 96.8569 3.64618L104.03 1.30406C104.635 1.10649 105.287 1.10649 105.892 1.30406L113.065 3.64618C113.763 3.87411 114.52 3.8381 115.194 3.54498L119.556 1.6458C120.482 1.24271 121.548 1.33245 122.394 1.8846L124.387 3.18655C125.172 3.69907 126.151 3.81532 127.034 3.50079L132.998 1.37641C133.68 1.13368 134.426 1.14534 135.099 1.40925L140.709 3.60726C141.357 3.86116 142.073 3.88187 142.735 3.66585L149.741 1.37792C150.484 1.13557 151.291 1.19212 151.992 1.53554L155.778 3.38995C156.569 3.77697 157.489 3.7976 158.295 3.44638L162.717 1.52137C163.481 1.18886 164.348 1.18886 165.112 1.52137L169.718 3.52667C170.417 3.83078 171.205 3.85775 171.922 3.60211L178.11 1.39789C178.828 1.14225 179.616 1.16922 180.314 1.47333L185.031 3.52667C185.729 3.83078 186.517 3.85775 187.235 3.60211L193.483 1.37641C194.165 1.13368 194.911 1.14534 195.584 1.40925L200.967 3.51851C201.75 3.82531 202.626 3.78938 203.381 3.41947L207.076 1.61005C207.866 1.22303 208.786 1.2024 209.593 1.55362L214.243 3.57826C214.87 3.8512 215.571 3.9018 216.231 3.72166L223.072 1.8533C223.676 1.68856 224.315 1.71644 224.902 1.93303L229.607 3.6704C230.188 3.88487 230.821 3.91436 231.419 3.75482L238.65 1.82659C239.205 1.67864 239.791 1.69302 240.338 1.86803L246.14 3.72472C246.701 3.90426 247.302 3.91464 247.869 3.75456L254.631 1.84544C255.198 1.68536 255.799 1.69574 256.36 1.87528L262.008 3.68249C262.65 3.88814 263.344 3.87113 263.975 3.6342L269.947 1.39501C270.626 1.14033 271.374 1.14033 272.053 1.39501L278.079 3.65445C278.677 3.87893 279.332 3.90631 279.947 3.73259L286.708 1.82376C287.226 1.6773 287.775 1.6733 288.296 1.81218L295.727 3.79387C296.233 3.92893 296.767 3.92893 297.273 3.79387L304.65 1.82659C305.205 1.67864 305.791 1.69302 306.338 1.86803L311.973 3.67131C312.637 3.88378 313.354 3.85838 314.001 3.59947L319.421 1.43168C320.115 1.15395 320.888 1.14555 321.588 1.40813L327.685 3.69452C328.218 3.89406 328.795 3.93836 329.352 3.82226L339.323 1.7413C339.768 1.64832 340.229 1.65793 340.671 1.76942L348.784 3.81901C349.254 3.93789 349.747 3.94083 350.219 3.82756L358.8 1.76803C359.26 1.65758 359.74 1.65758 360.2 1.76803L368.781 3.82756C369.253 3.94083 369.746 3.93789 370.216 3.81901L378.222 1.79652C378.732 1.66777 379.266 1.67518 379.772 1.81801L386.518 3.72274C387.155 3.90252 387.833 3.86677 388.447 3.62105L393.5 1.6" stroke="#FFD8AA" stroke-width="2" stroke-linecap="square"/>
</svg>
