<svg width="144" height="62" viewBox="0 0 144 62" fill="none" xmlns="http://www.w3.org/2000/svg">
<path d="M18.597 37.6691C18.597 39.3877 18.5574 40.942 19.2445 42.5694C20.0798 44.5478 21.2091 46.494 22.7447 48.0122C23.6131 48.8707 24.6612 49.937 25.8249 50.3924C26.4112 50.6218 26.7779 50.5544 26.805 49.8411C26.9014 47.301 25.5494 44.6323 24.1798 42.5869C22.4904 40.0639 20.028 37.4316 17.3369 35.9365" stroke="#FFD8AA" stroke-width="3" stroke-linecap="round"/>
<path d="M16.5495 37.0391C15.065 38.771 13.7413 40.6245 12.2005 42.3244C9.91502 44.8458 7.53564 47.2803 5.22635 49.7798C4.16031 50.9336 2.6931 52.1837 1.90116 53.5775C1.62053 54.0714 2.52336 54.9649 2.76746 55.3889C2.93819 55.6854 3.31004 56.8885 3.63376 57.0077C3.81469 57.0744 4.10405 56.8528 4.2638 56.7977C5.06862 56.5202 5.86461 56.2157 6.67019 55.9402C9.63608 54.9255 12.7393 54.4237 15.692 53.35C19.5567 51.9447 23.3676 50.2923 27.4176 49.4823" stroke="#FFD8AA" stroke-width="3" stroke-linecap="round"/>
<path d="M10.4062 55.3101C10.4062 56.6402 10.4062 57.9702 10.4062 59.3003C10.4062 61.2461 14.6037 59.1011 15.3765 58.6878C15.7154 58.5065 17.3367 57.962 17.3367 57.419C17.3367 56.1748 17.0012 55.3377 16.5491 54.2075" stroke="#FFD8AA" stroke-width="3" stroke-linecap="round"/>
<path d="M19 10L14.5186 28.7191" stroke="#FFD8AA" stroke-width="3" stroke-linecap="round"/>
<path d="M30.0635 35.9732C30.8582 34.5824 32.9608 33.5411 34.2087 32.6052" stroke="#FFD8AA" stroke-width="3" stroke-linecap="round"/>
<path d="M35 53C41.6548 54.3624 48.4575 55.517 55 57" stroke="#FFD8AA" stroke-width="3" stroke-linecap="round"/>
<path d="M33.4512 44.6153C33.9041 44.6153 34.3457 44.3903 34.7662 44.254C36.2143 43.7847 37.7243 43.3549 39.2461 43.2135C40.1672 43.128 41.1105 43.1846 42.0352 43.1846" stroke="#FFD8AA" stroke-width="3" stroke-linecap="round"/>
<path d="M22.6441 30.0091C22.3109 29.6093 23.8337 27.6837 24.0622 27.3306" stroke="#FFD8AA" stroke-width="3" stroke-linecap="round"/>
<path d="M74.7263 26.2182C75.1665 29.5207 75.421 32.8217 76.5817 35.9641C77.6527 38.8637 80.8044 37.6471 83.2529 37.3207" stroke="#FFD8AA" stroke-width="3" stroke-linecap="round"/>
<path d="M86.0012 25.7243C86.3342 28.2222 85.9575 33.6514 88.4383 35.0423C90.2949 36.0832 93.7961 35.8116 95.8397 35.5392" stroke="#FFD8AA" stroke-width="3" stroke-linecap="round"/>
<path d="M98.4875 22.9914C100.633 22.7054 102.779 22.4193 104.925 22.1333C106.919 21.8676 107.896 21.0832 109.638 20.3924" stroke="#FFD8AA" stroke-width="3" stroke-linecap="round"/>
<path d="M104.1 23.356L105.168 31.3729" stroke="#FFD8AA" stroke-width="3" stroke-linecap="round"/>
<path d="M100.115 32.4172C104.066 31.8906 107.542 31.295 111.266 29.8182" stroke="#FFD8AA" stroke-width="3" stroke-linecap="round"/>
<path d="M117.462 28.9924C117.192 26.9636 116.736 24.875 116.723 22.8272C116.717 21.942 116.379 18.5221 117.955 18.6245C119.78 18.743 121.072 22.0683 121.88 23.3349C122.598 24.46 125.845 29.8306 127.367 29.2587C130.438 28.1052 126.105 18.7092 125.795 16.3844" stroke="#FFD8AA" stroke-width="3" stroke-linecap="round"/>
<path d="M131.407 16.7488C134.089 16.3913 136.468 15.9889 138.962 15" stroke="#FFD8AA" stroke-width="3" stroke-linecap="round"/>
<path d="M135.099 16.6277C135.564 20.118 135.689 23.9283 137.237 27.0983" stroke="#FFD8AA" stroke-width="3" stroke-linecap="round"/>
<path d="M132.961 28.4101C136.51 27.937 138.542 25.5256 141.682 24.2805" stroke="#FFD8AA" stroke-width="3" stroke-linecap="round"/>
<path d="M53.761 28.1313C52.9668 28.2372 52.1726 28.3431 51.3784 28.4489C50.7688 28.5302 50.115 28.6041 49.944 27.8657C49.7634 27.0859 49.6938 26.2897 49.4972 25.5085C49.3813 25.0478 49.1642 24.1476 49.4826 23.7319C49.7824 23.3406 50.3605 23.1921 50.8135 23.0992C51.8568 22.8852 52.9218 22.8048 53.9683 22.6086C55.7219 22.2798 57.5095 21.9083 59.2326 21.4477C60.283 21.1669 61.364 20.9753 62.4386 20.8141C62.9883 20.7316 63.5803 20.596 64.1403 20.6534C64.7699 20.7179 64.9806 20.8956 64.9828 21.5335C64.9872 22.8385 64.8767 24.1427 64.8811 25.4504C64.8827 25.9306 65.2928 26.9491 64.7494 27.2115C64.0724 27.5383 63.0312 27.561 62.293 27.5895C61.9605 27.6023 61.6378 27.5164 61.6634 27.9264C61.7116 28.6988 61.7335 29.4705 61.8313 30.239C62.0993 32.3443 62.6381 34.3821 62.944 36.4809C63.0099 36.933 63.091 37.4925 63.3042 37.8962C63.3972 38.0721 63.4047 38.2833 63.6356 38.3346C64.0989 38.4374 64.6689 38.3669 65.1376 38.3134C65.4471 38.278 65.7489 38.2957 66.0584 38.2607C66.6637 38.1923 66.6146 39.3583 66.641 39.7358C66.7129 40.7611 66.9302 41.744 67.0787 42.7558C67.1746 43.4098 67.2017 43.3621 66.5128 43.4539C63.1899 43.8968 59.8251 43.9907 56.5267 44.6099C55.3293 44.8347 54.115 44.9664 52.9076 45.1273C52.6812 45.1575 52.4534 45.1985 52.2258 45.2182C52.0124 45.2366 51.9862 44.7561 51.9627 44.6189C51.8036 43.6899 51.6781 42.7344 51.5865 41.797C51.5383 41.303 51.4345 40.6888 51.5811 40.206C51.8842 39.2076 55.0212 39.7532 54.9368 39.0582C54.812 38.0309 54.6633 37.0059 54.5265 35.9801C54.4335 35.2823 54.3382 34.5857 54.286 33.8833C54.2265 33.082 54.301 32.2887 54.2632 31.4891C54.201 30.1764 54.2748 28.8271 54.1013 27.5256" stroke="#FFD8AA" stroke-width="3" stroke-linecap="round"/>
<path d="M36.3005 2.77957C34.1622 2.77957 32.1744 3.96733 31.2615 5.95599C30.2312 8.20066 32.4796 8.33388 33.9326 7.39981C35.144 6.62108 36.6767 4.68343 36.8058 3.19828C36.9704 1.30618 37.892 5.4742 37.9176 5.58059C38.6963 8.81841 39.7828 13.7939 38.0331 16.9435C37.3348 18.2005 34.7461 19.3429 33.7305 17.7954C31.1177 13.8139 42.9106 11.0906 45.1367 10.3163" stroke="#FFD8AA" stroke-width="3" stroke-linecap="round"/>
<path d="M49.8145 2.25989C48.9258 2.25989 47.9512 2.16446 47.129 2.56309C45.8071 3.20403 45.0019 5.35157 45.6419 6.69243C46.8007 9.12043 49.9714 8.79846 51.6337 7.11114C54.0907 4.61718 51.3818 2.54161 49.0348 2" stroke="#FFD8AA" stroke-width="3" stroke-linecap="round"/>
</svg>
